DataType=double
version=3
OpenSimVersion=4.5-2023-11-26-efcdfd3eb
endheader
time	EMG01_right_gast_med	EMG02_right_glut_max	EMG03_left_gast_med	EMG04_left_glut_max	EMG05_right_glut_med	EMG06_right_bic_fem	EMG07_right_rect_fem	EMG08_right_vast_lat	EMG09_right_vast_med	EMG10_right_tens_fasc_lat	EMG11_left_glut_med	EMG12_left_bic_fem	EMG13_left_rect_fem	EMG14_left_vast_lat	EMG15_left_vast_med	EMG16_left_tens_fasc_lat
2.28	0.02105577401541007	0.09173709098233407	0.2647742503415136	0.02782676126031225	0.05478413709037053	0.1693373182527648	0.04896807510703517	0.03066797389914193	0.03701943216730882	0.03245245893785985	0.05668569431261677	0.0236476601180934	0.0782039534004062	0.02509161451621036	0.01727466723471216	0.02924089412116463
2.29	0.02350831177480303	0.09157849811294762	0.2601276201157156	0.02692500405093859	0.05948443756548324	0.1731137735539648	0.05180531398127779	0.03177670254008391	0.04089484126257318	0.03703255258678027	0.0542182112778747	0.02507228894147905	0.07854305927063114	0.02574028095597619	0.01761498297004568	0.02819924611633188
2.3	0.02627848924192339	0.09164668824101092	0.2544192051856263	0.02626830685168515	0.06413657319249505	0.1763931097085203	0.05459920131058003	0.03279559487090644	0.04487874971027064	0.04220877908196925	0.05188313885971196	0.02644403557279006	0.07860202131724946	0.02632815480461943	0.01814446597434325	0.02760015405143769
2.31	0.02941109378434501	0.09192630226546952	0.2476837679835688	0.02587085330359078	0.06868085330587671	0.179142922884202	0.05731677501522552	0.03371235679669738	0.04893736385331013	0.0479337858265553	0.04967304911200011	0.02774339541444176	0.07837046023828412	0.0268411330419926	0.01883923452826375	0.02745724785496501
2.32	0.03294957187543793	0.09239883667802848	0.239971163117369	0.02574455126526401	0.07305906660878746	0.1813357968998414	0.05992651905985987	0.03451611631068843	0.05303521393021571	0.05415371735223345	0.04758080070053564	0.02895179000764231	0.07784239506128472	0.02726703173712589	0.01967453306361986	0.02778031136565194
2.33	0.03693534594879504	0.0930428604790091	0.2313453350388564	0.02589881445118141	0.07721526604914251	0.1829497680293832	0.06239878325935169	0.03519759160705327	0.05713558993023187	0.06080866628260177	0.04559955777639553	0.03005178942405206	0.07701628594327524	0.02759566848387145	0.02062504714009329	0.02857489702542789
2.34	0.04140716471058647	0.0938342729819797	0.2218830065435266	0.02634035713951249	0.0810965565517151	0.1839687409484057	0.06470617175429301	0.03574922203131695	0.06120100998366255	0.06783320610103942	0.04372282028749428	0.0310273436992334	0.0758949867733785	0.02781891834122076	0.02166521680595037	0.02984198161157612
2.35	0.04640049227628597	0.09474660615073728	0.2116721051729151	0.02707300645699577	0.08465387069560647	0.1843828440291592	0.06682389301084347	0.03616525925278464	0.06519371241847764	0.07515700711161942	0.04194446522048448	0.0318640203153019	0.07448561106067889	0.02793074594129017	0.02276954640106977	0.03157767222584891
2.36	0.05194694015184056	0.09575137523542797	0.2008099780885923	0.02809753735888222	0.08784271596802479	0.1841887127010885	0.06873006439016172	0.0364418182318712	0.06907616104359859	0.08270553509562077	0.04025879804887163	0.03254924410661501	0.07279931896685628	0.02792721662290283	0.02391290836208649	0.03377297174270731
2.37	0.05807374448749403	0.09681848017200863	0.1894014513644743	0.02941153560326111	0.09062387582318601	0.1833896899615992	0.07040596552002375	0.03657688955179762	0.07281155227399269	0.09040082995021161	0.03866061318172885	0.03307253528588781	0.0708510369507096	0.02780648980988632	0.02507083828168542	0.03641361241554456
2.38	0.06480328937589924	0.09791665737286781	0.1775567948746121	0.0310092938928565	0.09296404526674973	0.1819959318018859	0.0718362367851465	0.03657031617512104	0.07636431256115818	0.09816235916338628	0.0371452616036921	0.03342574047751871	0.06865912365091521	0.02756879813106397	0.02621981840326275	0.03947996565813007
2.39	0.07215267548240345	0.09901397765184566	0.165389655466808	0.03288174626221584	0.09483638057237578	0.1800244035074527	0.07300902158665551	0.03642373850993063	0.07970057550110714	0.1059079383025304	0.03570872334555013	0.03360325070542628	0.06624499618632497	0.02721641567480162	0.02733754673687656	0.04294703528384947
2.4	0.08013333224928472	0.1000783819180957	0.1530150175622874	0.03501644580412926	0.09622094272637252	0.1774987531576991	0.07391605279376549	0.03614051188123917	0.08278863006110793	0.1135547077593938	0.03434768195816268	0.03360219933284735	0.06363273046937515	0.02675361822139411	0.02840318900118057	0.04678454061515314
2.41	0.08875067169465917	0.1010782426399466	0.1405472434328731	0.03739759071824059	0.09710501574059832	0.1744490522342909	0.07455268479984632	0.03572560030316668	0.08559933396525503	0.1210201518421411	0.03305959789564027	0.0334226322338511	0.06084864806530514	0.02618663749251869	0.02939761079324912	0.05095709492163123
2.42	0.09800378279980665	0.1019829362139884	0.1280982372695765	0.04000610319015784	0.09748328427336429	0.1709113990248158	0.07491787334457387	0.03518545009282852	0.08810648826159788	0.1282231431615591	0.03184277785188051	0.03306764231321946	0.05792090097546525	0.02552361063846353	0.03030358790157507	0.05542448376915796
2.43	0.1078851676428726	0.1027634092705141	0.1157757686332585	0.04281976471623809	0.09735785994108684	0.1669273875658059	0.07501410622743834	0.0345278466325875	0.09028716975309167	0.1350849928601333	0.030696437567758	0.03254346111818423	0.0548790644460743	0.02477452549872213	0.03110599338971286	0.06014204697304347
2.44	0.1183805235016523	0.1033927207204186	0.1036819822958515	0.045813410239878	0.09673815178757013	0.1625434531675042	0.07484728881997245	0.03376175766542179	0.0921220174686725	0.1415304866750232	0.02962075605577369	0.03185950156777534	0.05175374631258804	0.02395116160338302	0.03179196071865919	0.06506116656945712
2.45	0.1294685788671631	0.1038465413044505	0.09191211329289248	0.04895918192966846	0.0956405830269916	0.1578101140760636	0.07442658814550776	0.03289716681116082	0.09359546841443604	0.1474888887177827	0.02861691927553816	0.03102834729840514	0.04857621947944828	0.02306702625986458	0.03235102252303257	0.07012986127394803
2.46	0.1411209951102456	0.104103593715425	0.0805534186137605	0.05222684162104523	0.09408816301349655	0.1527811347476532	0.07376423830165828	0.03194490116555067	0.09469593747864366	0.1528948987659204	0.02768715101288972	0.03006568564192168	0.04537808213779837	0.02213728426720139	0.03277522461973686	0.07529348533427574
2.47	0.15330234805791	0.1041460190446662	0.06968433044403319	0.05558413883565498	0.09210992991989983	0.1475126373619802	0.07287530920536875	0.03091645659679241	0.09541593729011053	0.1576895536103275	0.0268347282203417	0.0289901832013181	0.04219094850203593	0.02117867892927731	0.03305921444669038	0.08049552670528805
2.48	0.1659702038367287	0.1039596591287786	0.05937383015080618	0.05899722893285718	0.0897402848801073	0.1420621855731501	0.07177744089919687	0.02982382370689023	0.09575213580988638	0.1618210670530757	0.02606397762075575	0.02782330536994019	0.03904617133551344	0.02020944131673008	0.03320030253817653	0.08567849616318127
2.49	0.1790753015874878	0.1035342484781459	0.04968103725480429	0.06243113355087833	0.08701824144529516	0.1364878612402375	0.07049054660928114	0.02867931658261775	0.09570535160366891	0.1652456049946087	0.02538025032755348	0.02658908311599242	0.03597459631346703	0.01924918420738416	0.03319849502527612	0.0907848953245108
2.5	0.1925618535387044	0.1028635129264006	0.04065500352523064	0.06585023340759363	0.08398661501382682	0.1308473531895238	0.06903648837144911	0.02749540559356633	0.09528048847980276	0.1679279910087409	0.02478987196463473	0.02531383129118047	0.0330063471486136	0.01831877670719586	0.03305649463235834	0.09575824759029435
2.51	0.2063679708555171	0.1019451751207638	0.03233469898315201	0.06921878200325496	0.08069117611184509	0.1251970766560706	0.06743872898117713	0.02628455479469815	0.09448641202136004	0.1698423344160125	0.02430006728203237	0.02402582294605539	0.03017063918301875	0.01744019519437986	0.03277966725476208	0.1005441718918056
2.52	0.2204262207438383	0.1007808702260355	0.02474917378475905	0.07250142778690413	0.07717978988560982	0.1195913413789937	0.06572196384345977	0.02505906422482393	0.09333577002979807	0.1709725681317911	0.02391885999359204	0.02275492425684775	0.02749561792366182	0.01663634613360615	0.03237597103007003	0.1050914747982158
2.53	0.2346643155576983	0.09937597860198678	0.01791787756713413	0.07566373192500293	0.07350156245339735	0.1140815844403362	0.06391173659775795	0.02383091768109225	0.09184475755332963	0.1713128781573132	0.02365494980951088	0.02153219485848927	0.02500821813325331	0.01593085675556431	0.03185584502757108	0.1093532320759173
2.54	0.2490059279272239	0.09773938493279564	0.01185111595401746	0.07867266924799526	0.06970601292907487	0.1087156810631333	0.06203404320192375	0.02261163721762448	0.09003282681937494	0.1708680010000851	0.02351756915080633	0.02038945852539912	0.0227340387743478	0.01534783070450128	0.03123205534263254	0.1132878263967749
2.55	0.2633716178455994	0.0958831750298024	0.006550622586223001	0.08149710122690768	0.065842287743682	0.1035373434953382	0.0601149302720279	0.02141214631885903	0.08792234444092911	0.1696533604813013	0.02351632204126126	0.01935884921124632	0.02069722913549729	0.01491156740248088	0.03051949745206467	0.1168599041054138
